<svg width="735" height="654" viewBox="0 0 735 654" fill="none" xmlns="http://www.w3.org/2000/svg">
<path opacity="0.07" d="M507.1 104.937C509.2 106.137 511.1 109.037 511.4 111.637L558.1 497.937C558.5 501.237 556.5 502.737 553.8 501.237L299.7 354.537C297.1 353.037 295 349.137 295.4 346.337L342.2 14.0372C342.5 11.7372 344.3 11.0372 346.5 12.2372L507.1 104.937Z" fill="url(#paint0_linear_291_5523)"/>
<path opacity="0.4" d="M441.4 110.437C441.4 69.8372 417.6 23.1372 388.3 6.13717C359 -10.7628 335.2 8.43718 335.2 49.0372L346.7 55.6372V55.5372C346.7 23.6372 365.4 8.53717 388.4 21.8372C411.4 35.1372 430.1 71.8372 430.1 103.737V103.837L441.4 110.437Z" fill="url(#paint1_linear_291_5523)"/>
<path opacity="0.4" d="M472.9 132.937C472.6 130.337 470.8 127.437 468.6 126.237L307.9 33.4371C305.8 32.2371 303.9 32.9371 303.6 35.2371L256.8 367.537C256.4 370.337 258.4 374.237 261.1 375.737L515.3 522.437C517.9 523.937 520 522.437 519.6 519.137L472.9 132.937Z" fill="url(#paint2_linear_291_5523)"/>
<path opacity="0.3" d="M329.3 183.737L31.6997 11.9373L31.7997 167.037L303.1 323.637L329.4 362.537L329.3 183.737Z" fill="url(#paint3_linear_291_5523)"/>
<path d="M0 72.4372V30.3372L112.3 95.1372V137.237L0 72.4372Z" fill="#F2994A"/>
<path opacity="0.15" d="M252.8 177.337L187.6 139.737V153.337L252.8 190.937V177.337Z" fill="white"/>
<path opacity="0.15" d="M252.8 204.537L127.1 132.037V145.637L252.8 218.237V204.537Z" fill="white"/>
<path opacity="0.15" d="M252.8 231.837L100.5 143.937V157.537L252.8 245.437V231.837Z" fill="white"/>
<path d="M268.8 200.737C268.8 213.537 276.4 228.237 285.7 233.637C295 239.037 302.6 233.037 302.6 220.237C302.6 207.437 295 192.737 285.7 187.337C276.4 181.937 268.8 187.937 268.8 200.737Z" fill="#F2994A"/>
<path opacity="0.3" d="M364 361.637L661.5 533.337L661.6 688.437L390.3 531.837L364.1 540.437L364 361.637Z" fill="url(#paint4_linear_291_5523)"/>
<path d="M575 560.737V518.637L687.3 583.437V625.537L575 560.737Z" fill="#F2C94C"/>
<path opacity="0.15" d="M440.5 443.537L505.7 481.137V494.737L440.5 457.137V443.537Z" fill="white"/>
<path opacity="0.15" d="M440.5 470.837L558.2 538.737V552.337L440.5 484.437V470.837Z" fill="white"/>
<path opacity="0.15" d="M440.5 498.037L592.8 585.937V599.537L440.5 511.637V498.037Z" fill="white"/>
<path d="M424.4 448.437C424.4 461.237 416.8 467.237 407.5 461.837C398.2 456.437 390.6 441.737 390.6 428.937C390.6 416.137 398.2 410.137 407.5 415.537C416.9 420.937 424.4 435.737 424.4 448.437Z" fill="#F2C94C"/>
<path opacity="0.2" d="M52 321.037L255.8 438.637V331.237L52 213.637V321.037Z" fill="url(#paint5_linear_291_5523)"/>
<path d="M214.3 340.637C214.3 331.737 219.5 327.637 225.9 331.237C232.3 334.937 237.5 345.137 237.5 353.937C237.5 362.837 232.3 366.937 225.9 363.337C219.5 359.637 214.3 349.537 214.3 340.637Z" fill="#F2994A"/>
<path opacity="0.15" d="M203.9 369.137L72.8999 293.537V279.937L203.9 355.537V369.137Z" fill="white"/>
<path opacity="0.15" d="M203.5 341.237L143.9 306.837V293.237L203.5 327.637V341.237Z" fill="white"/>
<path opacity="0.2" d="M763.7 464.237L560 346.637V454.037L763.8 571.637L763.7 464.237Z" fill="url(#paint6_linear_291_5523)"/>
<path opacity="0.15" d="M611.8 403.137L661.8 432.037V445.637L611.8 416.737V403.137Z" fill="white"/>
<path opacity="0.15" d="M612.2 430.037L719.7 492.137V505.737L612.2 443.637V430.037Z" fill="white"/>
<path d="M601.4 405.037C601.4 413.937 596.2 418.037 589.8 414.437C583.4 410.737 578.2 400.537 578.2 391.737C578.2 382.837 583.4 378.737 589.8 382.337C596.2 385.937 601.4 396.137 601.4 405.037Z" fill="#F2C94C"/>
<path opacity="0.2" d="M243.7 586.637C176.1 499.837 225 468.637 243.7 519.437C262.5 490.337 311.4 577.937 243.7 586.637Z" fill="url(#paint7_linear_291_5523)"/>
<path opacity="0.2" d="M620.8 182.737C626.8 186.137 631.6 194.537 631.6 201.437V231.937L651.8 243.537C657.8 246.937 662.6 255.337 662.6 262.337C662.6 269.237 657.8 272.037 651.8 268.637L631.6 257.037V287.537C631.6 294.437 626.8 297.237 620.8 293.837C614.8 290.437 610 282.037 610 275.037V244.537L589.8 232.837C583.8 229.437 579 221.037 579 214.137C579 207.237 583.8 204.437 589.8 207.837L610 219.437V188.937C610 182.037 614.8 179.237 620.8 182.737Z" fill="url(#paint8_linear_291_5523)"/>
<defs>
<linearGradient id="paint0_linear_291_5523" x1="568.741" y1="208.455" x2="305.234" y2="315.734" gradientUnits="userSpaceOnUse">
<stop stop-color="white"/>
<stop offset="1" stop-color="white" stop-opacity="0"/>
</linearGradient>
<linearGradient id="paint1_linear_291_5523" x1="413.621" y1="42.3054" x2="242.929" y2="196.971" gradientUnits="userSpaceOnUse">
<stop stop-color="white"/>
<stop offset="1" stop-color="white" stop-opacity="0"/>
</linearGradient>
<linearGradient id="paint2_linear_291_5523" x1="529.952" y1="170.69" x2="359.26" y2="325.355" gradientUnits="userSpaceOnUse">
<stop stop-color="white"/>
<stop offset="1" stop-color="white" stop-opacity="0"/>
</linearGradient>
<linearGradient id="paint3_linear_291_5523" x1="264.388" y1="121.594" x2="110.738" y2="241.898" gradientUnits="userSpaceOnUse">
<stop stop-color="white"/>
<stop offset="1" stop-color="white" stop-opacity="0"/>
</linearGradient>
<linearGradient id="paint4_linear_291_5523" x1="491.809" y1="366.633" x2="530.28" y2="678.665" gradientUnits="userSpaceOnUse">
<stop stop-color="white"/>
<stop offset="1" stop-color="white" stop-opacity="0"/>
</linearGradient>
<linearGradient id="paint5_linear_291_5523" x1="130.643" y1="366.43" x2="177.157" y2="285.844" gradientUnits="userSpaceOnUse">
<stop stop-color="white" stop-opacity="0"/>
<stop offset="1" stop-color="white"/>
</linearGradient>
<linearGradient id="paint6_linear_291_5523" x1="685.143" y1="418.869" x2="638.643" y2="499.43" gradientUnits="userSpaceOnUse">
<stop stop-color="white"/>
<stop offset="1" stop-color="white" stop-opacity="0"/>
</linearGradient>
<linearGradient id="paint7_linear_291_5523" x1="257.939" y1="522.724" x2="208.101" y2="565.874" gradientUnits="userSpaceOnUse">
<stop stop-color="white"/>
<stop offset="1" stop-color="white" stop-opacity="0"/>
</linearGradient>
<linearGradient id="paint8_linear_291_5523" x1="641.725" y1="221.728" x2="589.368" y2="263.048" gradientUnits="userSpaceOnUse">
<stop stop-color="white"/>
<stop offset="1" stop-color="white" stop-opacity="0"/>
</linearGradient>
</defs>
</svg>
