<?xml version="1.0" encoding="utf-8"?>
<!-- Generator: Adobe Illustrator 24.0.1, SVG Export Plug-In . SVG Version: 6.00 Build 0)  -->
<svg version="1.1" id="Camada_1" xmlns="http://www.w3.org/2000/svg" xmlns:xlink="http://www.w3.org/1999/xlink" x="0px" y="0px"
	 viewBox="0 0 1920 1532" style="enable-background:new 0 0 1920 1532;" xml:space="preserve">
<style type="text/css">
	.st2{fill:#31343b;}
</style>
<g>
	<path class="st2" d="M307.61,1220.3c0-25.74-16.33-46.68-36.69-46.68c-20.36,0-36.88,20.94-36.88,46.68v109.46l-38.04,37.5V1220.3
		v-183.55l38.04,40.13v69.65c10.76-6.92,23.44-10.95,36.88-10.95c41.3,0,74.73,38.04,74.73,84.72v84.91h-38.04v-11.14V1220.3z"/>
	<path class="st2" d="M523.92,1305.21c-16.52-0.38-32.27-5.57-44.95-14.22c-23.05-15.18-38.04-41.11-38.04-70.69
		c0-29.39,14.98-55.52,38.04-70.7c13.25-8.84,29.39-14.02,46.68-14.02c17.1,0,33.23,5.19,46.68,14.02v-14.02h38.04v84.72
		c0,29.58-15.18,55.52-38.04,70.69c-2.88,1.92-5.76,3.65-8.84,5.19l5.76,9.03l15.95,24.01l25.17,38.04h-45.53H431.32l-36.35-38.04
		h144.89L523.92,1305.21z M525.65,1173.61c-25.93,0-46.68,20.94-46.68,46.68c0,14.6,6.34,27.47,16.91,35.92
		c8.07,6.72,18.25,10.95,29.78,10.95c5.76,0,11.53-1.15,16.71-3.07c17.48-6.72,29.97-23.82,29.97-43.8
		C572.33,1194.55,551.39,1173.61,525.65,1173.61z"/>
	<path class="st2" d="M746.62,1220.3c0-25.74-16.33-46.68-36.69-46.68c-20.36,0-36.88,20.94-36.88,46.68v73.77v11.14h-38.04v-84.91
		v-146.96h38.04v73.19c10.76-6.92,23.44-10.95,36.88-10.95c41.3,0,74.73,38.04,74.73,84.72v84.91h-38.04v-11.14V1220.3z"/>
	<path class="st2" d="M814.31,1073.33h38.04v231.87h-38.04V1073.33z"/>
	<path class="st2" d="M876.97,1220.3c0-29.39,15.18-55.52,38.04-70.7c13.45-8.84,29.58-14.02,46.87-14.02
		c17.29,0,33.23,5.19,46.68,14.02v-14.02h38.04v84.72v84.91h-38.04v-14.22c-13.45,9.03-29.39,14.22-46.68,14.22
		c-17.29,0-33.43-5.19-46.87-14.22C892.15,1275.81,876.97,1249.88,876.97,1220.3z M1008.57,1220.3c0-25.74-20.94-46.68-46.68-46.68
		c-25.93,0-46.87,20.94-46.87,46.68c0,25.93,20.94,46.87,46.87,46.87C987.63,1267.17,1008.57,1246.23,1008.57,1220.3z"/>
	<path class="st2" d="M1192.09,1212.42c0-21.32-17.67-38.81-39-38.81c-21.13,0-38.81,17.48-38.81,38.81v54.75v38.04h-38.04v-92.79
		v-76.84h38.04v10.76c11.53-6.92,24.59-10.76,38.81-10.76c14.22,0,27.47,3.84,39,10.76c22.67,13.25,38.04,38.04,38.04,66.08v92.79
		h-38.04v-38.04V1212.42z"/>
	<path class="st2" d="M1386.37,1290.99c-13.45,9.03-29.59,14.22-46.87,14.22c-46.68,0-84.72-38.04-84.72-84.91
		c0-46.68,38.04-84.72,84.72-84.72c17.29,0,33.43,5.19,46.87,14.02v-76.27h38.04v146.96v84.91h-38.04V1290.99z M1339.49,1267.17
		c25.93,0,46.87-20.94,46.87-46.87c0-25.74-20.94-46.68-46.87-46.68c-25.93,0-46.68,20.94-46.68,46.68
		C1292.81,1246.23,1313.56,1267.17,1339.49,1267.17z"/>
	<path class="st2" d="M1483.24,1290.99c-19.59-12.87-33.43-33.62-37.27-58.01c-0.38-4.03-0.77-8.45-0.77-12.68
		c0-8.65,1.34-17.29,3.65-25.17c6.15-18.83,18.25-34.77,34.39-45.53c13.26-8.84,29.39-14.02,46.68-14.02
		c29.59,0,55.52,15.18,70.89,38.04c4.22,6.53,7.68,13.83,9.99,21.52c2.5,7.88,3.84,16.52,3.84,25.17c0,4.23-0.38,8.64-0.96,12.68
		h-38.81h-25.17h-38.04h-26.7c5.38,19.79,23.63,34.19,44.95,34.19c16.33,0,30.74-8.45,39.19-21.32l31.7,21.32
		c-15.37,22.67-41.3,38.04-70.89,38.04C1512.63,1305.21,1496.49,1300.02,1483.24,1290.99z M1568.73,1195.13h0.58
		c0-0.19-0.19-0.19-0.19-0.38c-8.45-12.68-22.86-21.13-39.19-21.13c-16.52,0-30.93,8.45-39.38,21.52H1568.73z"/>
	<path class="st2" d="M1724,1173.61c-25.74,0-46.68,20.94-46.68,46.68v70.69v14.22h-38.04v-84.91v-84.72h38.04v14.02
		c13.26-8.84,29.39-14.02,46.68-14.02V1173.61z"/>
	<g>
		<path class="st2" d="M378.26,1135.58h38.04v169.63h-38.04V1135.58z"/>
		<rect x="378.26" y="1073.33" class="st2" width="38.04" height="35.16"/>
	</g>
</g>
</svg>
